<?xml version="1.0" standalone="no"?>
<!DOCTYPE svg PUBLIC "-//W3C//DTD SVG 20010904//EN"
 "http://www.w3.org/TR/2001/REC-SVG-20010904/DTD/svg10.dtd">
<svg version="1.0" xmlns="http://www.w3.org/2000/svg"
 width="900.000000pt" height="1011.000000pt" viewBox="0 0 900.000000 1011.000000"
 preserveAspectRatio="xMidYMid meet">
<metadata>
Created by potrace 1.16, written by Peter Selinger 2001-2019
</metadata>
<g transform="translate(0.000000,1011.000000) scale(0.100000,-0.100000)"
fill="#000000" stroke="none">
<path d="M3845 9130 c-33 -17 -68 -41 -78 -53 -10 -12 -25 -30 -33 -40 -8 -10
-29 -46 -47 -80 -19 -34 -50 -92 -70 -128 -41 -72 -104 -220 -146 -339 -15
-41 -32 -85 -39 -98 -15 -26 -24 -50 -111 -307 -34 -99 -66 -193 -72 -210 -6
-16 -14 -46 -19 -65 -4 -19 -22 -75 -40 -125 -17 -49 -36 -110 -42 -135 -19
-87 -30 -125 -49 -168 -10 -23 -19 -51 -19 -61 0 -10 -8 -40 -18 -67 -35 -91
-60 -179 -67 -229 -4 -27 -11 -58 -17 -69 -17 -31 -48 -154 -48 -188 0 -18 -9
-46 -20 -63 -11 -16 -20 -41 -20 -55 0 -14 -8 -54 -19 -90 -27 -89 -71 -286
-75 -335 -2 -22 -9 -53 -15 -68 -6 -16 -11 -42 -11 -58 0 -17 -4 -38 -10 -48
-11 -22 -189 -156 -196 -148 -3 3 -1 65 5 139 21 264 51 925 66 1493 3 110 8
207 10 215 3 8 7 71 10 140 5 112 13 196 45 440 6 41 10 94 10 116 0 33 46
162 65 183 9 8 99 -79 141 -135 25 -34 52 -65 61 -68 26 -10 43 14 43 59 0 35
-9 54 -56 118 -45 62 -71 86 -132 123 -66 40 -80 45 -106 37 -38 -11 -68 -60
-71 -116 -2 -23 -8 -78 -14 -122 -7 -44 -14 -109 -17 -145 -3 -36 -9 -108 -15
-160 -5 -52 -14 -146 -19 -208 -5 -62 -12 -123 -15 -135 -4 -20 -18 -340 -18
-412 0 -16 -4 -160 -9 -320 -5 -159 -11 -355 -13 -435 -3 -159 -7 -243 -32
-616 l-17 -252 -90 -66 c-278 -201 -325 -236 -371 -268 -27 -19 -78 -54 -113
-79 -35 -24 -73 -49 -84 -56 -11 -6 -24 -16 -27 -21 -4 -6 -37 -31 -75 -56
-37 -26 -86 -62 -109 -81 -23 -20 -116 -94 -207 -166 -91 -73 -181 -146 -201
-163 -20 -17 -67 -58 -105 -90 -98 -84 -284 -276 -284 -292 0 -8 -6 -14 -12
-14 -19 0 -92 -80 -116 -125 -12 -22 -37 -62 -57 -90 -19 -27 -51 -72 -70
-100 -19 -27 -47 -68 -63 -90 -77 -109 -281 -518 -282 -565 0 -9 -4 -20 -9
-25 -14 -14 -52 -158 -62 -233 -4 -35 -11 -67 -13 -71 -3 -5 -10 -71 -16 -147
-9 -114 -8 -164 5 -279 23 -195 90 -484 154 -655 33 -87 154 -321 192 -370
135 -175 260 -278 439 -363 182 -87 400 -105 500 -42 22 14 45 25 52 25 27 0
158 107 158 129 0 20 -14 12 -60 -35 -48 -50 -128 -94 -170 -94 -15 0 -31 -5
-36 -10 -15 -15 -203 13 -285 42 -36 13 -85 36 -110 50 -24 14 -75 42 -114 62
-38 20 -101 60 -139 89 -38 29 -78 57 -88 63 -31 18 -76 71 -104 122 -14 26
-43 78 -65 116 -21 38 -39 73 -39 78 0 5 -18 51 -40 103 -149 350 -213 721
-176 1019 33 261 75 395 204 655 78 159 191 343 304 495 l44 60 164 2 c191 3
355 20 389 41 40 25 10 32 -99 23 -123 -11 -297 -12 -336 -1 l-27 7 48 54 c26
30 57 58 69 62 71 22 388 100 481 118 61 12 139 28 175 35 109 24 127 26 172
26 24 1 59 4 78 9 19 5 109 18 200 30 91 12 194 28 230 36 98 21 102 21 98
-23 -3 -35 -6 -38 -38 -44 -19 -3 -44 -10 -56 -17 -11 -6 -31 -12 -45 -14 -58
-9 -129 -48 -87 -48 17 0 78 23 78 30 0 3 11 7 25 8 14 1 41 8 61 17 33 14 35
13 43 -8 11 -27 7 -82 -14 -217 -9 -58 -18 -134 -20 -170 -5 -99 -12 -158 -21
-172 -8 -12 -21 -109 -29 -208 -1 -25 -8 -58 -15 -75 -7 -16 -16 -66 -21 -110
-4 -44 -13 -105 -19 -135 -21 -106 -32 -185 -34 -230 0 -25 -9 -58 -19 -73 -9
-15 -19 -50 -22 -78 -2 -28 -10 -60 -18 -73 -8 -12 -17 -53 -20 -91 -3 -39
-12 -110 -20 -159 -9 -49 -13 -95 -10 -101 2 -7 0 -16 -6 -20 -6 -3 -11 -17
-11 -30 0 -13 -9 -39 -19 -57 -27 -45 -39 -138 -19 -138 15 0 32 44 42 105 7
45 30 140 80 330 24 94 56 240 70 325 24 142 43 237 67 330 10 39 36 193 68
400 39 255 51 345 72 520 11 96 23 178 27 181 4 4 62 25 129 47 67 23 140 50
162 61 l41 19 14 -26 c8 -15 19 -54 26 -87 14 -67 34 -135 56 -182 8 -17 14
-36 14 -43 0 -7 8 -29 19 -49 10 -20 24 -47 30 -61 32 -69 128 -174 169 -185
28 -7 54 7 69 37 10 19 80 182 125 288 6 14 14 33 19 43 5 9 21 47 35 85 14
37 36 90 49 117 13 28 36 79 51 113 31 71 43 80 139 94 33 5 89 13 125 18 36
5 103 17 150 25 182 34 190 33 152 -23 -10 -15 -30 -49 -44 -77 -14 -27 -35
-66 -47 -85 -11 -19 -25 -44 -30 -55 -5 -11 -20 -45 -35 -76 -14 -31 -30 -74
-35 -95 -6 -21 -20 -68 -31 -104 -12 -36 -28 -85 -35 -110 -8 -25 -19 -83 -24
-130 -5 -47 -15 -130 -21 -185 -14 -129 -19 -624 -9 -875 10 -217 40 -480 70
-610 11 -47 22 -112 26 -145 3 -33 11 -67 18 -75 16 -20 35 -77 35 -105 0 -12
11 -47 24 -76 13 -30 26 -71 30 -91 9 -49 58 -147 88 -175 28 -26 73 -44 92
-37 33 13 136 154 136 186 0 10 9 35 21 57 11 22 27 62 34 88 7 26 25 77 40
111 15 35 29 80 32 100 3 21 13 56 24 79 10 24 19 52 19 63 0 10 6 34 14 52
17 39 73 222 79 258 3 14 17 69 31 123 14 53 26 114 26 135 1 20 7 64 16 97
26 108 44 207 38 217 -4 5 1 28 9 51 33 94 64 549 72 1062 4 209 9 420 13 470
l7 90 55 12 c30 8 89 15 130 16 92 4 416 34 525 48 44 6 109 12 145 14 63 4
278 26 410 44 36 5 69 6 73 4 4 -3 38 0 75 6 37 6 123 16 192 21 69 6 166 14
216 20 114 12 187 18 334 26 63 3 131 8 150 9 19 2 121 10 225 19 105 9 228
20 275 25 47 6 126 11 177 11 50 1 106 5 125 10 18 6 51 10 73 10 49 0 110 21
133 44 16 17 8 18 -188 11 -250 -8 -339 -12 -640 -30 -129 -7 -287 -16 -350
-19 -63 -4 -146 -9 -185 -13 -38 -4 -74 -6 -78 -5 -4 1 -36 -2 -70 -7 -34 -5
-96 -12 -137 -16 -41 -3 -88 -7 -105 -10 -16 -2 -73 -7 -125 -11 -52 -4 -106
-8 -120 -10 -14 -2 -70 -8 -125 -14 -55 -6 -113 -12 -130 -14 -16 -2 -70 -7
-120 -11 -49 -4 -106 -8 -125 -10 -19 -2 -64 -6 -100 -9 -93 -9 -666 -73 -693
-79 -7 -1 -10 7 -8 18 2 11 6 55 10 98 3 43 11 81 17 85 6 4 15 15 21 26 12
22 61 42 156 63 66 14 68 14 96 -9 17 -13 30 -30 30 -39 1 -26 93 -69 146 -69
65 0 97 17 213 115 l103 87 70 -22 c38 -13 72 -27 75 -31 3 -5 16 -9 30 -9 14
0 35 -6 47 -14 36 -23 77 -29 83 -12 7 19 -13 56 -30 56 -7 0 -21 9 -30 19
-10 11 -31 23 -47 26 -16 4 -29 10 -29 14 0 4 -16 13 -35 21 -19 8 -35 16 -35
19 0 4 42 16 93 28 108 25 276 69 857 225 102 27 200 56 218 64 18 8 39 14 48
14 22 0 145 39 176 56 14 8 37 14 50 15 12 0 75 18 138 40 63 22 135 46 160
53 25 7 93 36 151 63 58 28 122 57 143 64 38 14 68 52 80 101 8 35 -12 46 -97
56 -60 8 -162 -1 -347 -27 -95 -14 -110 -19 -138 -44 -20 -19 -60 -32 -164
-54 -17 -3 -28 -1 -28 6 0 18 -80 13 -135 -8 -101 -39 -133 -49 -250 -86 -66
-20 -145 -45 -175 -55 -30 -11 -75 -24 -100 -30 -41 -10 -123 -38 -175 -60
-11 -5 -56 -19 -100 -31 -44 -12 -88 -26 -99 -31 -10 -5 -49 -19 -88 -29 -38
-11 -88 -28 -111 -39 -23 -10 -96 -35 -162 -56 -66 -20 -142 -47 -170 -59 -27
-13 -74 -28 -103 -34 -29 -6 -69 -18 -90 -27 -20 -9 -62 -24 -92 -34 -30 -10
-72 -26 -93 -34 -30 -13 -46 -15 -75 -6 -50 13 -95 13 -110 -2 -16 -16 -5 73
15 122 27 65 34 95 38 172 4 70 2 78 -15 83 -13 4 -31 -2 -52 -19 -31 -24 -64
-92 -149 -311 -11 -27 -25 -61 -33 -75 -7 -14 -19 -42 -26 -63 -7 -24 -23 -45
-43 -57 -32 -20 -49 -18 -42 3 3 7 7 30 10 52 2 22 9 67 14 101 6 33 9 94 7
135 l-4 74 -29 -2 c-34 -3 -59 -32 -74 -86 -6 -23 -21 -64 -34 -92 -12 -27
-28 -67 -34 -87 -18 -55 -88 -158 -108 -158 -40 0 -81 24 -86 49 -8 38 1 137
18 208 20 79 27 213 13 230 -6 7 -18 13 -26 13 -23 0 -71 -50 -65 -66 3 -8 1
-20 -5 -27 -5 -6 -22 -48 -37 -92 -15 -44 -32 -84 -36 -90 -5 -5 -9 -14 -9
-21 0 -15 -52 -125 -84 -178 -28 -47 -98 -101 -120 -93 -26 10 -20 73 19 212
71 249 100 483 65 505 -21 13 -24 13 -51 -9 -19 -15 -30 -44 -52 -137 -16 -66
-37 -157 -48 -203 -11 -47 -29 -104 -39 -127 -11 -23 -29 -68 -41 -100 -12
-33 -41 -101 -65 -152 -24 -51 -44 -97 -44 -101 0 -14 -81 -175 -97 -193 -9
-10 -28 -18 -43 -18 -14 0 -57 -16 -96 -35 -38 -19 -77 -35 -87 -35 -9 0 -25
-4 -35 -9 -9 -5 -42 -21 -72 -36 -30 -15 -61 -34 -69 -43 -10 -13 -15 -14 -18
-4 -3 6 -11 12 -19 12 -8 0 -11 -6 -8 -15 6 -15 -14 -20 -63 -16 -13 1 -23 -3
-23 -9 0 -5 -7 -10 -15 -10 -8 0 -15 7 -15 15 0 11 -9 14 -32 13 l-32 -3 -17
75 c-77 353 -85 497 -44 810 15 110 21 131 50 175 18 28 53 64 76 82 24 17 94
68 154 112 153 112 274 201 315 233 139 109 363 302 445 383 73 73 207 219
216 237 6 10 36 49 67 86 32 37 70 87 86 112 16 25 37 54 46 65 23 25 145 243
155 276 4 13 22 60 40 104 18 44 40 105 48 135 8 30 22 82 31 115 28 103 44
289 40 466 -5 245 -22 325 -100 464 -63 111 -263 275 -337 275 -12 0 -28 5
-35 12 -7 7 -50 13 -99 15 -82 4 -92 2 -148 -27z m184 -82 c43 -8 83 -23 116
-45 130 -85 155 -104 155 -114 0 -6 13 -23 29 -38 17 -16 49 -63 72 -107 36
-68 45 -97 65 -217 21 -125 22 -153 14 -285 -4 -81 -13 -160 -19 -175 -6 -16
-11 -42 -11 -58 0 -28 -30 -152 -49 -201 -4 -12 -16 -48 -26 -78 -10 -30 -26
-64 -35 -75 -9 -11 -20 -29 -23 -40 -17 -60 -60 -143 -86 -167 -17 -15 -31
-35 -31 -43 0 -21 -37 -92 -53 -102 -7 -4 -18 -20 -24 -35 -7 -16 -17 -28 -23
-28 -5 0 -10 -5 -10 -11 0 -25 -123 -182 -229 -294 -91 -95 -238 -234 -281
-266 -19 -15 -48 -39 -65 -55 -37 -35 -214 -177 -237 -190 -9 -5 -31 -22 -50
-39 -39 -35 -102 -83 -184 -140 -32 -22 -74 -54 -93 -71 -55 -47 -99 -75 -104
-67 -6 12 44 252 94 448 23 94 53 211 65 260 13 50 30 113 38 140 17 52 72
248 86 300 10 38 45 150 75 240 13 39 38 117 56 175 17 58 58 184 91 280 33
96 66 195 73 220 7 25 25 74 40 110 14 36 33 83 40 105 38 114 167 412 184
426 10 8 34 42 52 75 55 98 114 160 157 167 50 8 65 7 131 -5z m3386 -2730
c17 1 45 4 64 7 65 12 22 -29 -68 -65 -15 -5 -33 -14 -41 -19 -15 -10 -302
-104 -368 -120 -20 -6 -55 -15 -77 -21 -22 -6 -56 -15 -75 -19 -36 -9 -120
-32 -200 -56 -60 -17 -149 -42 -405 -112 -49 -13 -160 -42 -245 -64 -85 -21
-175 -46 -200 -53 -107 -34 -278 -74 -425 -101 -38 -7 -83 -17 -100 -23 -36
-12 -132 -32 -195 -39 -37 -4 -48 -1 -64 15 -18 21 -18 21 19 37 21 8 95 34
164 56 69 23 155 52 191 64 82 29 204 70 300 100 72 22 102 32 180 61 19 7 82
26 140 42 58 16 150 44 205 62 55 17 132 40 170 50 39 10 129 35 200 54 127
35 159 42 240 51 64 7 98 17 123 33 12 8 53 21 90 29 84 19 300 42 327 36 11
-3 34 -5 50 -5z m-4678 -425 c-22 -117 -28 -157 -34 -223 -9 -103 -5 -340 7
-425 20 -134 42 -250 56 -289 8 -22 12 -41 10 -43 -2 -2 -48 -10 -103 -18 -54
-8 -111 -19 -127 -24 -15 -6 -39 -11 -53 -11 -24 0 -25 2 -19 43 3 23 10 89
16 147 5 58 12 132 16 165 9 88 43 506 43 536 1 30 59 91 131 138 57 37 63 37
57 4z m-263 -240 c-11 -153 -15 -200 -23 -333 -4 -74 -11 -142 -14 -150 -6
-16 -15 -103 -22 -225 -4 -76 -24 -105 -70 -105 -13 0 -52 -7 -87 -15 -76 -17
-95 -20 -218 -35 -52 -6 -111 -15 -130 -20 -19 -5 -78 -13 -130 -19 -52 -6
-111 -12 -130 -14 -64 -8 -244 -48 -285 -64 -22 -9 -69 -22 -105 -28 -36 -7
-104 -22 -152 -33 -131 -30 -134 -35 127 199 44 39 96 82 115 94 19 12 52 38
72 57 52 50 330 262 473 363 44 30 118 83 165 116 47 33 104 73 126 88 23 15
57 40 75 55 46 38 202 146 212 146 4 0 5 -35 1 -77z m2862 -102 c-27 -27 -65
-54 -87 -61 -36 -12 -44 -11 -83 7 -24 12 -46 30 -48 41 -5 19 4 22 116 42 66
12 126 23 131 24 24 7 16 -8 -29 -53z m-1232 -31 c4 -26 19 -54 40 -78 l34
-38 -35 -24 c-48 -33 -247 -110 -283 -110 -10 0 -23 -6 -29 -13 -6 -8 -30 -20
-53 -27 -24 -7 -56 -18 -73 -26 -38 -16 -79 -21 -84 -11 -6 10 91 226 101 227
4 0 8 -12 10 -27 2 -18 15 -35 38 -51 40 -27 68 -24 147 15 55 26 65 36 92 81
9 15 29 51 46 79 16 28 33 49 36 47 4 -2 9 -22 13 -44z m345 -84 c10 -12 5
-20 -31 -43 -85 -55 -150 -108 -219 -176 -50 -51 -82 -75 -117 -86 -35 -12
-48 -22 -50 -38 -3 -19 -10 -23 -36 -23 -18 0 -57 -4 -86 -10 -29 -5 -57 -7
-64 -3 -14 9 52 22 116 22 46 1 73 16 46 26 -13 5 -153 -9 -222 -22 -22 -5
-41 -14 -43 -20 -3 -9 4 -11 25 -7 17 3 38 1 49 -5 16 -9 14 -11 -12 -12 -16
-1 -39 -3 -50 -5 -11 -1 -33 -5 -50 -7 -16 -3 -30 -6 -30 -7 0 -1 -20 -4 -44
-5 -24 -2 -59 -6 -77 -10 -21 -3 -34 -2 -34 5 0 5 7 10 16 10 10 0 14 6 11 14
-8 19 21 77 47 96 12 8 41 22 66 32 106 39 296 115 425 169 42 18 111 41 150
51 22 5 65 23 95 38 61 32 101 37 119 16z m190 -65 c22 -17 23 -22 16 -89 -8
-79 -2 -74 -95 -87 -25 -4 -69 -8 -97 -11 -29 -2 -84 -10 -123 -18 -39 -7 -73
-10 -75 -6 -11 17 188 158 290 206 61 28 55 27 84 5z m-4 -313 c-13 -117 -22
-373 -13 -391 5 -9 7 -32 4 -50 -3 -17 -9 -165 -13 -327 -8 -337 -9 -374 -23
-525 -6 -60 -8 -127 -5 -147 3 -20 1 -39 -4 -42 -5 -3 -12 -43 -16 -88 -4 -46
-11 -90 -15 -98 -4 -8 -11 -44 -14 -79 -4 -35 -11 -72 -16 -82 -6 -10 -10 -42
-10 -73 0 -30 -4 -57 -9 -60 -5 -3 -14 -43 -21 -88 -7 -46 -21 -102 -31 -125
-11 -23 -19 -59 -19 -80 -1 -39 -42 -222 -55 -243 -4 -7 -13 -33 -21 -58 -7
-26 -26 -85 -42 -132 -17 -47 -33 -101 -36 -121 -3 -19 -17 -51 -31 -69 -14
-19 -25 -38 -25 -44 0 -12 -32 -84 -65 -146 -20 -38 -30 -46 -60 -51 -31 -5
-39 -2 -59 21 -12 15 -30 54 -40 86 -9 33 -24 82 -32 109 -30 100 -113 494
-132 630 -22 154 -36 299 -38 415 -9 538 2 893 33 1060 28 151 112 410 154
470 9 14 33 57 53 95 115 219 123 227 231 240 71 8 310 47 314 51 2 2 18 4 34
4 l30 0 -8 -62z m-1252 -180 c-15 -35 -30 -68 -34 -73 -4 -6 -21 -44 -37 -85
-26 -66 -49 -120 -136 -325 -29 -69 -34 -75 -59 -74 -31 0 -91 82 -133 182
-30 72 -104 309 -104 334 0 5 26 15 58 21 31 7 80 17 107 23 68 14 315 56 342
58 l22 1 -26 -62z"/>
<path d="M7766 5201 c-9 -10 -19 -40 -22 -67 -6 -48 -5 -49 28 -66 52 -26 78
-28 107 -11 57 36 59 41 49 86 -6 23 -19 50 -30 60 -28 24 -109 23 -132 -2z"/>
<path d="M2010 2467 c0 -7 -9 -30 -19 -50 -11 -21 -22 -61 -26 -90 -7 -57 -25
-116 -48 -162 -21 -42 -32 -73 -46 -125 -18 -67 -28 -100 -46 -149 -27 -75
-10 -69 27 9 42 91 50 113 78 215 12 44 39 132 61 196 39 115 48 169 29 169
-5 0 -10 -6 -10 -13z"/>
</g>
</svg>
